<?xml version="1.0" encoding="UTF-8"?>
<svg id="a" data-name="Capa 1" xmlns="http://www.w3.org/2000/svg" viewBox="0 0 20 18.4">
  <path 
  fill-rule="evenodd" 
  d="M0,.5C.1.1.4,0,.8,0c6.2,0,12.3,0,18.5,0,.2,0,.4,0,.6.2.3.2.3.6,0,.9-.7.8-1.4,1.7-2,2.5-1.7,2-3.3,4-5,6.1,0,0-.1.2-.1.3,0,1.9,0,3.8,0,5.7,0,.4-.1.6-.5.8-1.3.6-2.5,1.2-3.8,1.9,0,0-.2,0-.3.1-.3.1-.7-.1-.8-.5,0-.1,0-.2,0-.3,0-2.6,0-5.1,0-7.7,0-.2,0-.3-.1-.4C4.9,6.8,2.5,3.9.2,1.1c0-.1-.1-.2-.2-.3,0,0,0-.2,0-.3ZM1.9,1.2c0,0,0,.1.1.2,2.1,2.5,4.2,5.1,6.3,7.6.2.2.3.5.3.8,0,2.3,0,4.6,0,6.8,0,0,0,.2,0,.3,0,0,.1,0,.2,0,.8-.4,1.6-.8,2.5-1.2.1,0,.2-.1.2-.3,0-1.8,0-3.7,0-5.5,0-.3,0-.5.3-.7,2.1-2.5,4.2-5.1,6.3-7.6,0,0,0,0,.1-.2H1.9Z" 
  fill="currentColor" 
  stroke-width="0"/>
</svg>