<?xml version="1.0" encoding="UTF-8"?>
<svg id="Capa_1" data-name="Capa 1" xmlns="http://www.w3.org/2000/svg" version="1.1" viewBox="0 0 24 24">
  <defs>
    <style>
      .cls-1 {
        fill: #000;
        stroke-width: 0px;
      }
    </style>
  </defs>
  <path class="cls-1" d="M6,13.8c-1,0-1.7-.8-1.7-1.8h0c0-1,.8-1.8,1.8-1.8s1.7.8,1.7,1.8h0c0,1-.8,1.8-1.8,1.8ZM18,13.8c-1,0-1.7-.8-1.7-1.8h0c0-1,.8-1.8,1.8-1.8s1.7.8,1.7,1.8h0c0,1-.8,1.8-1.8,1.8ZM10.2,12c0,1,.8,1.8,1.7,1.8s1.8-.8,1.8-1.7h0c0-1-.8-1.8-1.7-1.8s-1.8.8-1.8,1.7h0Z"/>
</svg>