<?xml version="1.0" encoding="UTF-8"?>
<svg id="a" data-name="Capa_1" xmlns="http://www.w3.org/2000/svg" viewBox="0 0 437.9 257.3">
  <g>
    <path d="M35.7,82.6l18.4,5.4v9.1c0,11.6-10.7,20.9-23.6,20.9h-7c-13.1,0-23.6-9.3-23.6-20.9V20.9C0,9.5,10.5,0,23.6,0h7c12.9,0,23.6,9.5,23.6,20.9v9.5l-18.4,5.4v-14.8c0-2.8-2.8-5.2-5.9-5.2h-5.5c-3.3,0-5.9,2.4-5.9,5.2v76.3c0,2.8,2.6,5.2,5.9,5.2h5.5c3.1,0,5.9-2.4,5.9-5.2v-14.5Z" fill="#FFF"/>
    <path d="M94.2,82.5h-6.3v34.6h-18.4V1h28.7c12.9,0,23.6,9.5,23.6,20.9v39.8c0,7.2-4.2,13.5-10.5,17.3l12.5,38.1h-18.4l-11.2-34.6ZM95.7,66.8c5.2,0,7.7-2.3,7.7-6.8V23.5c0-4.6-2.6-6.8-7.7-6.8h-7.7v50.2h7.7Z" fill="#FFF"/>
    <path d="M133.8,97.1V20.9c0-11.4,10.5-20.9,23.6-20.9h7c12.9,0,23.6,9.5,23.6,20.9v76.3c0,11.6-10.7,20.9-23.6,20.9h-7c-13.1,0-23.6-9.3-23.6-20.9ZM152.2,20.9v76.3c0,2.8,2.6,5.2,5.9,5.2h5.5c3.1,0,5.9-2.4,5.9-5.2V20.9c0-2.8-2.8-5.2-5.9-5.2h-5.5c-3.3,0-5.9,2.4-5.9,5.2Z" fill="#FFF"/>
    <path d="M239.1,82.6l18.4,5.4v9.1c0,11.6-10.7,20.9-23.6,20.9h-7c-13.1,0-23.6-9.3-23.6-20.9V20.9c0-11.4,10.5-20.9,23.6-20.9h7c12.9,0,23.6,9.5,23.6,20.9v9.5l-18.4,5.4v-14.8c0-2.8-2.8-5.2-5.9-5.2h-5.5c-3.3,0-5.9,2.4-5.9,5.2v76.3c0,2.8,2.6,5.2,5.9,5.2h5.5c3.1,0,5.9-2.4,5.9-5.2v-14.5Z" fill="#FFF"/>
    <path d="M326.4,117h-18.8l-2-18.7h-19.3l-1.8,18.7h-18.8L281.1,1h29.8l15.5,116ZM303.7,82.6l-7.2-65.8h-1.3l-7.2,65.8h15.6Z" fill="#FFF"/>
  </g>
  <g>
    <path d="M181.3,221.9l18.4,5.4v9.1c0,11.6-10.7,20.9-23.6,20.9h-7c-13.1,0-23.6-9.3-23.6-20.9v-76.3c0-11.4,10.5-20.9,23.6-20.9h7c12.9,0,23.6,9.5,23.6,20.9v9.5l-18.4,5.4v-14.8c0-2.8-2.8-5.2-5.9-5.2h-5.5c-3.3,0-5.9,2.4-5.9,5.2v76.3c0,2.8,2.6,5.2,5.9,5.2h5.5c3.1,0,5.9-2.4,5.9-5.2v-14.5Z" fill="#FFF"/>
    <path d="M267.4,140.3v116h-18.4v-81.5h-15.5v81.5h-18.4v-116h18.4v18.9h15.5v-18.9h18.4Z" fill="#FFF"/>
    <path d="M285.1,140.3h18.4v116h-18.4v-116Z" fill="#FFF"/>
    <path d="M373.5,161.1v39.8c0,11.6-10.7,20.9-23.7,20.9h-10.1v34.6h-18.4v-116h28.5c13.1,0,23.7,9.5,23.7,20.9ZM355.1,162.8c0-4.6-2.8-6.8-7.9-6.8h-7.5v50.2h7.5c5.2,0,7.9-2.3,7.9-6.8v-36.5Z" fill="#FFF"/>
    <path d="M437.9,214.8v21.7c0,11.6-10.7,20.9-23.6,20.9h-7c-13.1,0-23.6-9.3-23.6-20.9v-9.1l18.4-5.4v14.5c0,2.8,2.6,5.2,5.9,5.2h5.5c3.1,0,5.9-2.4,5.9-5.2v-24.6c0-6-1.7-8.5-7.9-11.2l-12.9-5.7c-7.9-3.6-14.7-11.4-14.7-21.3v-13.4c0-11.4,10.5-20.9,23.6-20.9h6.3c13.1,0,23.6,9.5,23.6,20.9v9.5l-18.4,5.4v-14.8c0-2.8-2.8-5.2-5.9-5.2h-4.8c-3.1,0-5.9,2.4-5.9,5.2v10.8c0,7.3,1.3,8.3,7,10.8l13.8,6c14.7,6.5,14.7,17.6,14.7,27.1Z" fill="#FFF"/>
  </g>
</svg>