<?xml version="1.0" encoding="UTF-8"?>
<svg id="a" data-name="Capa_1" xmlns="http://www.w3.org/2000/svg" viewBox="0 0 496.3 460.4">
  <rect id="b" data-name="Fondo" width="496.3" height="460.4" fill="#f15a24"/>
  <g id="c" data-name="Papa" opacity=".3">
    <path d="M398.4,285.5c3.2,2.2,6.2,4.7,9.6,6.6,4.2,2.4,5.9,5.7,5.5,10.3-.4,4.4-2.4,6.8-7.4,6.4-6.2-.5-12.3-.7-18.1-1.1,2.5,6.2,6.8,11.8,6.5,17.1-.6,11.4-10,1.9-15.3,5.1,6.5,6.9,14.5,11,23.7,12.7,20,3.6,38-1.6,54.5-12.5,3.7-2.4,7-5.4,10.6-7.9,1.4-1,4-2.5,4.7-2,1.5,1.1,2.9,3.4,2.7,5.1-.4,3.1-1,7-3.1,8.9-19.2,17.7-41.6,27.1-68.5,23.4-11.2-1.5-21-6.4-28.4-14.9-3.3-3.8-6-8.6-7.3-13.4-2.6-9.2.5-14,9.4-16.8,1.3-18.4,1.6-18.8,13.1-20.3,0-4.4-.4-8.9,0-13.3,1-10.3,5.8-13.1,15.3-8.8,4.3,2,8.9,4.3,12.2,7.6,14.7,14.3,30.9,11.7,47.3,4.5,6.9-3,13.1-7.5,19.5-11.5,5.2-3.3,7.9-2.4,7.9,3.7,0,2.9-1.3,6.9-3.5,8.6-12.6,10-26.4,17.5-43,19.5-9.6,1.2-17.8-1-25.3-6.9-4.8-3.7-9.8-7.1-15-10.3-1.9-1.2-4.5-1.4-6.8-2.1-.3.7-.6,1.4-1,2.1Z" fill="#f2f2f2"/>
    <path d="M376.3,225.5c-31.4.3-57.5-20-61.9-45.5-.5-3-.8-6.2-.3-9.2.3-1.6,2.3-2.9,3.5-4.4,1,1.4,2.5,2.7,3.1,4.2,1.7,4.6,2.2,9.8,4.6,14,11.5,20.3,39.5,30.9,63.7,24.2,21.8-6,39-19.1,53.9-35.4,5.5-6,10.5-12.4,15.9-18.5,1-1.1,2.9-2.5,3.8-2.2,1.2.4,2.8,2.5,2.7,3.6-.5,3.8-.6,8.2-2.8,11-14.3,18.5-30.2,35.6-51.1,47.4-11.9,6.8-24.7,10.4-35.1,10.6Z" fill="#f2f2f2"/>
    <path d="M381.7,126.7c.6,3.1,2.4,6.7,1.5,9.3-3.6,10.3-7.5,20.5-12.3,30.3-2.4,4.9-7.4,8.3-13.6,6.8-6.2-1.5-8.9-6.7-9.1-12.2-.3-8,.5-16,1.3-24,.1-1.5,2.4-2.8,3.7-4.3,1.1,1.6,3.1,3.2,3.1,4.8,0,4.3-1.3,8.6-1.3,12.9,0,2.6,1.5,5.2,2.4,7.8,2.8-1,6.9-1.2,8.1-3.1,3.9-6.5,6.8-13.5,10.1-20.4,1.2-2.6,2.3-5.4,3.4-8.1,1,0,1.9,0,2.9.1Z" fill="#f2f2f2"/>
    <path d="M387.5,156c1.4-5.6,2.5-11.2,4.2-16.7.4-1.4,2.5-2.3,3.8-3.5,1,1.5,2.8,2.9,2.8,4.4,0,3.4-1.1,6.8-1.4,10.3-.2,2.2.2,4.5.4,6.8,2.5-.5,6-.3,7.4-1.8,3.3-3.6,5.9-8,8.2-12.3,1.6-3.1,2.1-6.7,3.6-9.9.7-1.4,2.4-2.4,3.6-3.6,1,1.4,2.8,2.9,2.8,4.3,0,3.4-.2,7.1-1.4,10.3-2.6,6.7-5.2,13.5-8.9,19.7-4.2,7.1-11,9.9-16.2,8.2-5.3-1.7-8.3-7.5-8.9-16.2Z" fill="#f2f2f2"/>
    <path d="M422.5,123.8c-12.1-1-22.3-3.9-30.5-11.4-1.8-1.7-3.7-4.3-3.9-6.6-.2-2.8,1.4-5.7,2.1-8.6,2.1,1,4.5,1.7,6.4,3.1,7.6,5.7,16.4,8,25.8,8.6,5.8.4,6.4,4.4,6.2,8.8-.2,4.6-2.6,6.9-6.2,6.1Z" fill="#f2f2f2"/>
    <path d="M376.8,104.2c-1.2,2.8-1.8,5.5-3.3,7.6-5.8,7.9-13.4,13.7-22.8,16.9-3.2,1.1-6.9,2.5-8.4-2.1-1.4-4.3-2-9.6,3.2-11.2,10-3.2,18.2-8.3,24.5-16.5.6-.7,2.9-1.3,3.1-1,1.4,1.9,2.4,4,3.6,6.3Z" fill="#f2f2f2"/>
    <path d="M411,384c.2,7.3-2.2,10.9-7.2,11.4-4.8.5-5.4-3.7-5.6-7.3-.3-5.5,3-9.5,7.9-8.6,2.3.5,4.1,3.6,5,4.4Z" fill="#f2f2f2"/>
    <path d="M274.6,282.1c0,.2,0,.4,0,.6-1.5,3.4-3,6.9-4.7,10.2,0,.2-3-.4-3.1-.9-.6-3.8-.9-7.6-1.1-11.4,0-.9.6-2.1,1.3-2.7,1.4-1.3,3.1-2.3,4.7-3.5.9,1.7,2,3.4,2.8,5.2.3.7,0,1.6,0,2.5,0,0,0,0,0,0Z" fill="#f2f2f2"/>
    <path d="M472.6,189.3c0-.4,0-.8,0-1.2,1-3.6.5-8.6,5.8-8.7,1.5,0,4,3.6,4.5,5.9,1,5-1.7,8.9-6.3,10.6-.9.3-3.4-3.7-5.2-5.7.4-.3.8-.6,1.1-.9Z" fill="#f2f2f2"/>
    <path d="M252.8,312.5c2.9-3.6,5.2-6.5,7.4-9.3,1.4,2.4,4.1,5.1,3.8,7.3-.6,3.4-3.3,6.4-5.1,9.6-1.8-2.2-3.5-4.4-6.1-7.6Z" fill="#f2f2f2"/>
    <rect x="75.7" y="33.7" width="420.1" height="426.6" fill="none"/>
    <path d="M426.3,65.9c19.6,9.9,37.5,22.3,53.4,37.2,6.7,6.3,12.1,13.2,16.5,20.6v-19c-2.5-3.7-5.3-7.2-8.6-10.4-17.1-16.8-36.1-31.1-57.7-41.8-2.4-1.2-5.6-.9-8.5-1.2-.2,3.6-1,7.3-.3,10.7.3,1.6,3.2,3,5.2,4Z" fill="#f2f2f2"/>
    <path d="M496.3,169.4c-.7-1-1.3-2-2-3-1.7,3-4.3,5.9-4.7,9-.3,2.3,2.3,4.9,3.7,7.4,1-1.4,2-2.7,3.1-4.2v-9.2Z" fill="#f2f2f2"/>
    <path d="M259.8,416.1c-7.5-11.3-16.9-20.6-29.9-25.8-9.4-3.8-16.1-.5-17.6,9.4-.9,6-1.2,12.7.6,18.4,5.2,17.3,14,31.5,26.4,42.3h25c-1.8-.7-3.6-1.5-5.4-2.4-18.6-9.7-31.4-24.6-38.8-43.9-1-2.6-.3-5.9-.4-8.9,3.2,0,6.7-.8,9.5.3,12,4.7,20.3,13.7,27,24.2,9.4,15,9.4,15,22.9,3.7,2.6-2.1,5-4.5,7.8-6.2,1.8-1.1,4.3-1.3,6.5-1.8.2.6.4,1.2.6,1.8-5.8,10.8-11.7,21.6-17.9,33.3h11.1c4.9-8.1,10.1-16.1,14.2-24.6,2.6-5.5,5.3-5.5,10.5-4.5,30.5,5.8,61.1,7,91.4-1,12.7-3.4,25-8.4,38.3-12.9,3.8,6.2,7.8,12.9,12.2,20.1-4.9,2.7-9.3,4.2-12.6,6.9-5.9,5.1-12.3,10.1-17.3,15.9h16.5c3.9-2.6,8.1-4.8,12.4-6.7,10.1-4.4,12.3-8.5,8.5-18.9-2.8-7.7-6.8-15.1-10.6-23.3,2.4-1.6,5.2-3.5,8.7-5.8,4.1,6.8,8,13.1,11.8,19.5,4.5,7.4,9.3,14.1,19.3,15.3,4.2.5,6.2,3.5,4.3,8.3-1.6,4.2-3.9,8.1-6.7,11.6h7.9v-32.1c-2.1-1.5-4.7-2.7-7.6-3.5-3.3-1-6.7-3.4-8.9-6.1-3.4-4.1-5.7-9.2-8.9-13.6-2.6-3.6-2.1-5.8,1.6-8.6,9.3-7,17.2-14.8,23.8-23.4v-18.3c0,0-.1.2-.2.3-25.1,36-62.3,53.3-103.9,62.9-20.7,4.8-41.9,3.1-62.9,1.2-26.1-2.4-49.7-10.8-68.1-30.1-12.8-13.4-22.6-28.9-29.8-45.8-11.9-28.1-8.8-54.6,10.4-78.9,4.3-5.4,8.8-10.6,13.5-15.6,16.5-17.7,24.7-38.8,26-62.5.9-15.3,1.2-30.6,2-45.9.8-15.2,6.5-28.7,18.7-38,15.6-11.9,31.7-23.3,48.5-33.3,14.8-8.8,30.9-15.6,49.2-9.9,1.3.4,4.1-1.1,4.8-2.4,3-5.3.3-11-5.7-12.4-10-2.5-20-2.2-29.8,1.2-23.4,8.1-43.4,21.8-62.8,36.5-18.4,14-29.2,32.4-30.4,55.6-.7,12.8-.7,25.7-1.2,38.5-.5,11.8-1.8,23.4-6.7,34-2.8-1.2-5.3-2-7.6-3.1-4.6-2.2-10.3-3.5-13.5-7-5.1-5.6-9.1-12.3-12.6-19.1-5.2-10.1-9.3-20.8-14.4-31-2.7-5.5-7.4-9.4-14.1-8.5-7,.9-9.3,6.7-10.6,12.4-1,4.4-1.3,9-1.9,13.4-.4-.3-.9-.7-1.3-1-2.6,2.2-6.8,4-7.4,6.6-1.4,5.9-2.9,11.2-5.9,16.7-3.4,6.2-1.5,13.8,2,20.3,6.3,11.7,14.2,22.2,25.2,29.9,6,4.2,13.4,6.6,20.4,9.2,2.2.8,5.6.3,7.9-.7,4.9-2.2,4.9-6.8,3.8-11.2-1.1-4.4-4.1-3.8-7.4-2.6-1.3.5-3,.3-4.3,0-18.3-4.5-29.1-17.5-39.1-33,5-.2,11.3,5.6,12.2-2.7.5-4.3-1.6-8.9-2.5-13.6,2.3,1.1,4.7,2.3,7.1,3.5,4.6-4.8,3.9-9.4,1-14.3-1.5-2.4-3.4-5.3-3.3-7.8.2-3.3,1.4-8,3.7-9.4,4-2.3,7.7.9,9.6,4.6,3.2,6.3,6.1,12.7,9.1,19.1,8.1,17.6,14,37,37.9,42.6-6.9,8.3-13,15.9-19.5,23.2-10.7,12-18.8,25.3-22.5,41.1-7.7,32.8.4,62.4,18.5,89.9,10.4,15.9,22,30.8,39.2,41.4-3.8,3.1-7,5.6-10.7,8.5-2.6-4.1-4.8-7.6-7.1-11Z" fill="#f2f2f2"/>
    <path d="M251.7,308.1v9.5c-.2.6,0,1.1.3,1.6.2.6.6,1,1.2,1.2.7.3,1.4.5,2.2.6.9.2,1.8.2,2.6,0,1.9-.3,3.9-.8,5.5-1.9l1.3-1c.7-.6,1.2-1.3,1.4-2.2v-9.5c.2-.6,0-1.1-.3-1.6-.2-.6-.6-1-1.2-1.2-.7-.3-1.4-.5-2.2-.6-.9-.2-1.8-.2-2.6,0-1.9.3-3.9.8-5.5,1.9l-1.3,1c-.7.6-1.2,1.3-1.4,2.2h0Z" fill="#f2f2f2"/>
    <path d="M272.8,307.3c0,3.7.6,7.3,1.9,10.8.2.7.5,1.2,1.1,1.6.5.5,1.1.9,1.9,1.1.8.3,1.7.4,2.6.3,1,0,1.9,0,2.9-.3,1.7-.5,3.6-1.3,4.8-2.7s1.8-2.5,1.2-3.8c-1-2.8-1.6-5.7-1.8-8.6v1.3c0-.3,0-.6,0-.9.1-.7,0-1.3-.4-1.9-.2-.7-.7-1.1-1.3-1.5-.7-.4-1.4-.7-2.2-.8-.9-.2-1.8-.3-2.7-.2-1.9.2-3.9.8-5.5,2l-1.3,1.1c-.7.7-1.1,1.6-1.3,2.5h0Z" fill="#f2f2f2"/>
    <path d="M272.5,290.6c-.2-2.6-.4-5.1-.5-7.7s0-2.5-.1-3.8,0-1,0-1.5,0-.5.2-.5l-.5.5c-1.2.8-2.2.9-3.1.3,0,.4.1.9.1,1.3s0,1,0,1.5c-.1,1.1-.3,2.2-.6,3.3-.5,2.3-1.1,4.5-1.1,6.8s1.5,1.5,2.5,1.4,1.6-.3,2.2-.8,1-.7,1.1-1.3c.1-1.5.9-2.7,1.7-4s1.8-3,2.3-4.6,1.1-3.6.1-5.1-3.5-1.9-5.3-1.9l-2.2,3.5c.4,0,.7,0,1.1,0,1.3,0,3.1-.4,3.8-1.6s-.6-1.9-1.6-1.9-.7,0-1.1,0c-1.3,0-3.1.4-3.8,1.6s.6,1.9,1.6,1.9.8,0,1.1,0c-.2,0,.3,0,.3,0,.4.1-.2-.1,0,0s.6.4.6.9-.2,1.6-.3,2.2-.4,1.3-.6,1.9c-1.1,2.6-3.4,4.7-3.7,7.6l5.8-.7c0-2.9.9-5.6,1.5-8.4s.4-2.9.3-4.4-.2-1.4-.7-1.9-2-.8-3-.7c-1.9.2-4.1,1.3-4.6,3.3s-.1,1.5,0,2.2,0,1.6,0,2.4c.1,3.2.3,6.4.5,9.6s.8.8,1.1.9c.7.2,1.5.1,2.2,0,1.1-.3,2.6-1,2.5-2.3h0Z" fill="#f2f2f2"/>
    <path d="M272.6,292.3c1.8-2,3.4-4.2,4.5-6.6s1-2.5,1.4-3.9.7-2.9.2-4.2c-1.1-3.6-5.6-3.8-8.3-2s-3.6,4.5-3.9,7.2,5.6,1.7,5.8-.6.3-1.8.6-2.7.4-.8.7-1.2-.2.2.2-.2.6-.5.1-.2h.2c-.2,0-.5.1-.7.2-.5.1-.7.1-1.1,0s.3.2,0,0c.2.1.3.3.4.5.4.6.4,1.6.2,2.5-.3,1.9-1,3.6-1.9,5.2s-1.9,3.1-3.2,4.5-.6,2.1.7,2.5,3.1,0,4.1-1.1h0Z" fill="#f2f2f2"/>
    <path d="M474.6,181c-1,1.4-2.2,2.7-3,4.2s-1.2,3.2-1.1,4.9.6,3.2,1.6,4.4c1.5,1.9,4.7,1.5,6.7.7s3.7-2.2,4.6-4.1.7-3.5.7-5.1-.5-3.3-1.4-4.7-1-1.4-1.8-1.7c-1.7-.6-4,0-5.3,1.1s-1.1,1.8-1.3,2.8-.4,2-.5,3-.1,2.1-.1,3.2,0,2,.6,2.9,1.2.5,1.6.5c.7,0,1.6-.2,2.3-.5s2.3-1.2,1.6-2.3-.2-1.4-.2-2c0-.8,0-1.7.1-2.5s.2-1.7.4-2.5.2-.8.3-1.2.1-.4.1-.6c0-.5,0,0-1,.5l-1.5.4h.2c-.5,0-.9,0-1.4,0-.1,0-.4-.4-.3-.1s.2.1.2.2c.1.1.3.3.4.5.3.3.5.7.6,1.1.4.8.6,1.8.6,2.7s0,2-.1,3-.3,1.7-.8,2.4-.4.4-.2.2c-.2.2-.3.3-.5.4s-.3.2,0,0,0,0-.1,0c.4-.2.7-.3,1.2-.3s.6,0,.3,0,0,0,0,0c-.2-.1-.1,0-.3-.2-.3-.3-.5-.6-.7-1-.8-1.6-1-3.4-.5-5.1s2.2-3.7,3.5-5.4-.7-1.6-1.6-1.6c-1.3,0-3,.5-3.8,1.6h0Z" fill="#f2f2f2"/>
    <path d="M400.9,380.4c-3.1,3-4.6,7.7-3.6,11.9s.9,2.3,1.9,3,2.6,1,3.9.9c2.9-.1,5.4-1.9,6.8-4.3,2.2-3.8,2.6-10.9-2.5-12.7s-6.5.1-7.7,2.8-.4,2.5-.5,3.7,0,2.5.3,3.8.3,1.3.6,1.8c.5,1.1,1.3,1.7,2.6,1.7,2,0,3.9-1.2,5-2.8,1.6-2.4.7-5.2,0-7.7s-2.3-1.4-3.4-1-2.8,1.2-2.4,2.6.9,2.8.9,4,0,.5-.1.8-.2.5,0,.3,0,.2-.1.2c0,.1-.1.2-.2.4-.1.2.4-.3,0,0s0,0,.1-.1c-.2.1-.2.1,0,0,.4-.2.8-.4,1.3-.4l2,.4c.2.1.4.6.2.1s-.1-.3-.2-.4c-.1-.3-.2-.7-.3-1-.2-.7-.2-1.5-.3-2.1s0-1.3,0-2,0-.7,0-1.1,0-.5,0-.7c0,.4,0-.1,0-.1l-.2.3c.2-.2.1-.1,0,0h-.1c.2,0,.2,0-.2.3.4-.2-.3.1-.3.1.6-.2-.8,0-.2,0,0,0-.7,0-.3,0h-.4c.1,0,.2,0,.3,0,0,0-.5-.3,0,0s.3.2.5.3c-.4-.3,0,.1.1.2,0,0,.2.2.2.3.1.2.2.3.3.5,0,0-.1-.3,0,0,.3.7.5,1.5.5,2.2s0,1.1,0,1.7-.3,1.5-.5,2-.5,1.2-.9,1.7c0,0,.3-.3,0,0s-.3.3-.4.4c-.2.3,0,0,0,0,0,0-.2.2-.3.2l.3-.2h-.1c-.3.2-.2.2.3,0,0,0-.3,0-.3,0h.5c-.1,0-.2,0-.3,0,0,0,.7,0,.2,0s.4.2,0,0-.4,0-.4-.1.4.3.1,0c0,0-.2-.1-.3-.2.2.2.2.2,0,0,0,0-.1-.2-.2-.3-.3-.4,0,.1,0-.2s-.2-.6-.3-.9-.1-.6-.2-.9,0-.4,0-.6,0-.6,0-.2c0-.7,0-1.4.1-2.1s.1-.7.2-1.1,0-.3.1-.5c0-.1,0-.1,0,0,0-.1,0-.2.1-.4.3-.6.6-1.3,1-1.8s.4-.5.1-.2.2-.3.3-.4c.2-.3.5-.6.8-.8.9-.9.5-2.2-.7-2.6s-3,0-4.1,1.1h0Z" fill="#f2f2f2"/>
    <path d="M388.4,369.2c-1.8,1.5-3.6,3.4-4.9,5.3s-1.5,4.2-1.1,6.6.4,2.3.7,3.5.5,2.5,1.1,3.5,1.6.7,2.5.5,2.3-.7,3.3-1.4c1.8-1.3,2.8-3.3,3.6-5.3s1.6-4.8,1.3-7.4-.4-2.3-.7-3.4-.7-2-1.7-2.4c-2-.9-4.2.8-5,2.5-2.3,4.7-2.7,10.5-1.5,15.6s3,.2,2.9-.8c-.4-2.3-.5-4.7-.5-7.1s.1-1.1,0-1.5-.4-.6-.5-1-.3-1-.3-1.5,0-.6,0-.9c.2-.6.5-.4-.5-.4l-.9-.6c-.3,1.3-1.3,2.1-1.9,3.3s-.9,2.5-.8,3.8,2,.1,2.3,0c3.8-2.1,4.3-6.5,6.5-9.9l-2.8.2c-.9,2.5-1.4,5.3-1.9,7.9s-.6,2.7-.8,4-.5,2.3,0,3.4,2.3,0,2.8-.4c1.8-1.8,1.8-4.6,2.6-6.8s1.1-2.7,1.6-4.1,1-2.2-.4-2.6-1.6.1-2,.5-.3.8.2.9c-.3,0-.3.3-.4.5s-.2.5-.3.8c-.2.6-.4,1.2-.7,1.7-.5,1.1-.9,2.2-1.3,3.3-.6,1.9-.6,4.1-2.1,5.6l2.8-.4c-.5-1.2-.2-2.4.1-3.6s.5-2.5.8-3.8c.5-2.5.9-5.1,1.8-7.5s-.8-.6-1-.6c-.6,0-1.4.2-1.7.8-1.9,2.8-2.4,7.3-5.6,9.1h2.3c0-1.3.3-2.7,1-3.8s1.4-1.8,1.7-2.9-.5-.6-.9-.6c-1.3,0-2.8.6-3.4,1.8s-.3,2.7.3,3.7.3,1,.3,1.7,0,1.7,0,2.5c0,1.7.2,3.3.5,4.9l2.9-.8c-.9-3.7-.8-7.5,0-11.1s.5-1.7.8-2.5.3-.8.5-1.1.5-.7.6-1.1l.2-.2-.7.2s.3.3.4.4c.2.3.4.7.5,1.1.3,1,.6,2,.7,3,.3,2,.1,4-.5,5.9s-1.2,3.6-2.4,5.1-1,1.1-1.7,1.4-.3,0-.4.2h0c-.3,0-.1,0,.4,0,0,0-.5-1.3-.5-1.4-.5-1.8-.9-3.6-1.2-5.4s-.3-4.3,1.1-6.2,2.7-3.4,4.3-4.7.3-.8-.2-.9-1.5.1-2,.5h0Z" fill="#f2f2f2"/>
  </g>
  <g id="d" data-name="Snacks" opacity=".3">
    <path d="M136.1,345.4c4.9-.8,9.3-2.7,13.5-5.2s6.8-5.3,10.6-5.7,6.5,2.9,6.3,6.7-3.1,7.6-6.3,9.9c-7.1,5.2-16.7,5.5-25.2,5.4s-8.4-.7-9.8-4.7-.3-3.1.6-4.4,2.2-2,3.7-2.1c4.9-.4,9.3,3,13.5,5.1s10.5,3.7,16.1,3.1,3-.8,3.2-2.2-1.6-1.8-2.6-1.7c-5.4.5-10.1-1.2-14.7-3.7s-10-5.3-15.7-4.4c-4.6.7-9.9,4-10.2,9.1s4.2,8.4,8.7,9.4,5.6.6,8.4.6,5.7-.1,8.6-.4c5.4-.5,10.9-1.8,15.7-4.4s8.6-5.8,10.7-10.4,1.7-10.3-2.8-13.2-11.9-1-16.8,2-9.2,6.4-14.8,7.4-3,.8-3.2,2.2,1.6,1.9,2.6,1.7h0Z" fill="#f2f2f2"/>
    <g>
      <path d="M195,37.1c-3-5.7-10.3-6.2-15.7-4.2s-5.8,3-8.2,5.1-4.5,4.2-5.5,7.2-.2,5.1,1.6,6.8,5.5,1.7,8.3,1.4,1.6,0,2.2.7.7,1.8.7,2.7c0,2.1-.4,4.2-.1,6.4s2.2,4.2,4.6,4.9,6.9,1.3,10.2,1,6.5-1.5,8.8-3.9,1.6-2.4,2.1-3.9.4-1,.7-1.5c0,0-.3,0-.3.1.4,0,.4-.1.2,0,.2,0,.3,0,.5,0,1,0,2.2,0,3.3,0,2,0,3.9-.4,5.7-1.1,3-1.1,5.6-3.1,8.1-5.2s4.6-3.8,5.2-6.7-.7-5.4-3.3-6.3-3.5-.3-5.3-.3-1.9-.4-2.4-1.4-1-2.6-1.7-3.8-1.9-2.4-3.3-3.3c-6.6-4.1-14.7-.8-20.9,2.2s-2.3,1.4-1.5,2.5,3,.6,3.9.2c4.2-2.1,9-4.7,13.5-2.2s2.9,3,3.8,5.1,2.7,3.9,5.4,4.2,2.4,0,3.6,0,1.5.1,2,.9c1.2,1.8.2,4.1-1.1,5.4s-3.7,3.4-5.8,4.7-3.5,1.6-5.7,1.6-5.5.2-7.8,1.8-1.8,1.8-2.3,3.1-.6,2.2-1.5,3.1c-1.5,1.5-3.5,1.5-5.6,1.2s-2.6-.3-3.8-.6-2.1-.5-2.7-1.3c-1-1.3-.8-3.2-.7-4.8s.4-3.8-.2-5.6-2.8-3.2-5-3.4-2.5,0-3.8.2-1.7.3-2.5-.3c-1.7-1.3-1.8-4.1-.9-5.9s3.6-4.5,5.7-6,4.1-2.7,6.4-2.5,4.4,1.4,5.4,3.3,2.2,1.1,3.3.8,3.1-1.2,2.5-2.4h0Z" fill="#f2f2f2"/>
      <path d="M189.4,52.4c.6,0,1.1-.1,1.7-.1h-.7c.7,0,1.3,0,2,.2l-.7-.2c.6.1,1.2.3,1.7.6s1.6.2,2.2,0,1.5-.6,1.9-1.1.7-1.1.5-1.7-.7-.9-1.2-1.2c-1-.5-2.2-.8-3.3-.9s-2.3-.2-3.5,0-1.5.3-2.2.8-1,1-1,1.6.2,1.1.7,1.5,1.3.6,2,.5h0Z" fill="#f2f2f2"/>
    </g>
    <g>
      <path d="M88.9,401.8c.4-.8.9-1.5,1.7-2s1.2-.6,1.8-.7c2.1-.3,4.4.6,6.4,1.8s4.3,3,6,5,2.8,3.9,2.3,6.3-.5,1.4-.9,1.8c.2-.2.7,0,0,0s-1.2-.1-1.8-.2c-2.9-.3-5.8-.1-8.1,1.8s-1.6,6.8-1.9,10.3-.1,1.5-.5,2.1-.7.6-1.2.7c-2.5.5-5.5,1.1-8,.4s-3.8-2.3-4.5-4.7-2.6-3.8-5.2-4.2-4.5.1-6.6-.5-4.7-2.4-6.7-4-4-3-4.7-5.3-.3-1.8,0-2.6c0,0,.3-.5.3-.5h0c0,0-.1,0-.2,0,0,.3-.9,0,0,0s.5,0,.7,0c3.1.1,6.4,0,8.7-2.3s1.9-4.7,3.8-6.5,3.1-1.6,5.2-1.4c3.2.4,6.1,1.9,9,3.3s3,.2,4.1-.5,1.7-1.8.5-2.5c-3.1-1.5-6.4-3.1-9.8-3.7s-6.5-.3-9.5,1-5.1,2.9-6.3,5.5-1,2.3-1.6,3.4-.2.3-.3.3c-.6-.3.5-.1.6-.2,0,.2-1.5,0-1.8,0-3.2-.2-7,.4-8.8,3.5s-.6,5.4,1.2,7.5,4.5,4.1,6.9,5.7,5.5,2.8,8.6,2.9,4.9-.6,5.8,1.8.8,2.7,1.8,3.9,2.3,2,3.6,2.6c3.2,1.3,6.8,1.2,10.1.7s7-1,9.2-3.7,1.4-4,1.3-6.1-.6-4,.4-5.7c0,0,.1-.3.2-.2,0,0-.9,1-.7.3s1.3,0,1.4,0c1.6.2,3.1.4,4.7.1,3.1-.5,5.8-2.4,6.7-5.5s-.7-6.2-2.8-8.5-5.2-4.9-8.3-6.3c-5.9-2.7-14.8-1.9-18.2,4.4s.6,1.8,1.6,1.9,3.2-.4,3.8-1.6h0Z" fill="#f2f2f2"/>
      <path d="M89.7,411.9c-2.6-.4-5.3,0-7.7,1.1s-1.2.8-1.5,1.4-.2,1.2.1,1.6c.9,1.2,2.7,1,3.9.5s.4-.2.6-.3l-.8.3c.6-.2,1.1-.4,1.7-.5h-.8c.6,0,1.2,0,1.8,0h-.7c.4,0,.8,0,1.2,0,.7.1,1.6,0,2.3-.4s1.2-.8,1.5-1.4.3-1.2-.1-1.6-1-.8-1.7-.9h0Z" fill="#f2f2f2"/>
    </g>
    <path d="M65.1,312.5c-.5-1.6-.9-3.2-.8-4.9s.2-1.5.7-2.2.4-.6.7-.8c.4-.3.2,0,0,0,3.9-1.3,5.8,2.6,6.2,5.7s0,3.3,2.2,3.5,1.7-.2,2.3,0,1.3.7,1.7,1.2c1.1,1.2,1.2,3.1.5,4.5s-.5.8-.8,1.1l-.3.2c-.5.3-.2.2.8-.2.3,0,.3,0,0,0-.2,0-.3,0-.5,0-.5-.1-.9-.3-1.4-.6-.9-.5-2.5,0-3.3.2s-2.2.6-2.3,1.5c-.3,2-2.2,3-3.9,3.7s-4.8,1.7-6.9.1-1.4-4-.8-5.9.9-2.2,1.6-3.1.7-.9,1.1-1.3.4-.3.6-.5c.5-.4-.6.1.3-.1s2.4-.8,1.7-1.6-3.1.2-3.7.4c-3.6,1.2-6,3.8-7.2,7.3s-.8,6.6,2.8,7.6,9.2-.3,13.2-1.9,6.7-2.7,7.1-6.2l-5.6,1.8c1.9,1.1,4.1,1.2,6.2.8s4.6-1.2,6.1-3c2.5-2.8,1.5-7.1-2.2-8.1s-1-.2-1.5-.2-1.2.2-1.5,0c-.5-.2.1,0,0-.2s-.1-.4-.2-.6c-.1-.5-.1-1.1-.2-1.6-.3-2-.7-3.9-2.1-5.4s-3.4-1.9-5.5-1.8-4.9.6-7.2,1.5-3.9,2.2-4.4,4.4,0,4.1.6,6,6.1-.3,5.8-1.6h0Z" fill="#f2f2f2"/>
    <path d="M126.3,208.4c-.5-1.6-.5-3.3.1-4.9s1.5-2.9,2.8-3,2.5,1.6,3,2.6.7,1.6,1,2.5.3,1.9,1,2.6c1.6,1.5,4.7.3,6.7.3s2.3.1,3.3.4,1.1.8,1.3,1.6,0,1.8.1,2.7.2,2.1-.2,3.1c0-.2-.3.5-.2.4-.3.2-.4.2-.2.1.2,0,.1,0-.3,0-1,0-2-.3-3-.5-1.4-.3-3.8.1-4.5,1.6s-1.2,2-2.2,2.6-.7.4-1.2.4-1,0-1.4,0c-1.4-.3-2.2-1.2-3.4-1.8s-2.7-.4-3.8.1-1.3.8-2,1.1c-2.3.9-4.8-1-5.4-3.2s-.2-3,.7-4.2,1-.9,1.6-.8c1.4.3,3.1,0,4.1-1.1s.7-2.1-.6-2.4c-3.3-.6-6.6.2-9.2,2.4s-3.2,5-2.3,7.8,3.3,4.5,6,5.1,3.5.3,5.3,0,1.6-.4,2.3-.8,1.6-.9,2-1.1l-2.3.4h.3c-.4-.1-.8-.2-1.2-.3.4.2,1.2.9,1.8,1.2s1.6.8,2.5,1c1.8.5,3.7.5,5.5.1,3.5-.7,6.8-2.9,8.4-6.1l-4.5,1.6c3.4.9,6.9,1.2,10-.6s2.5-1.8,3-3.3.2-2.8.2-4.3,0-2.5-.5-3.6-1.9-2.1-3.3-2.5-3.4-.6-5.1-.7-3.3.3-5,.4h1.4c.5.2.3-.1.2-.5s-.1-.6-.2-.8c-.2-.6-.4-1.2-.7-1.8-.5-1.1-1.1-2.1-1.9-2.9-2.3-2.3-5.7-2.7-8.7-1.7-5.2,1.7-9,7.1-7.2,12.6s6.5.7,5.8-1.6h0Z" fill="#f2f2f2"/>
    <path d="M37.4,29.4c-.5-1.6-.5-3.3.1-4.9s1.5-2.9,2.8-3,2.5,1.6,3,2.6.7,1.6,1,2.5.3,1.9,1,2.6c1.6,1.5,4.7.3,6.7.3s2.3.1,3.3.4,1.1.8,1.3,1.6,0,1.8.1,2.7.2,2.1-.2,3.1c0-.2-.3.5-.2.4-.3.2-.4.2-.2.1.2,0,.1,0-.3,0-1,0-2-.3-3-.5-1.4-.3-3.8.1-4.5,1.6s-1.2,2-2.2,2.6-.7.4-1.2.4-1,0-1.4,0c-1.4-.3-2.2-1.2-3.4-1.8s-2.7-.4-3.8.1-1.3.8-2,1.1c-2.3.9-4.8-1-5.4-3.2s-.2-3,.7-4.2,1-.9,1.6-.8c1.4.3,3.1,0,4.1-1.1s.7-2.1-.6-2.4c-3.3-.6-6.6.2-9.2,2.4s-3.2,5-2.3,7.8,3.3,4.5,6,5.1,3.5.3,5.3,0,1.6-.4,2.3-.8,1.6-.9,2-1.1l-2.3.4h.3c-.4-.1-.8-.2-1.2-.3.4.2,1.2.9,1.8,1.2s1.6.8,2.5,1c1.8.5,3.7.5,5.5.1,3.5-.7,6.8-2.9,8.4-6.1l-4.5,1.6c3.4.9,6.9,1.2,10-.6s2.5-1.8,3-3.3.2-2.8.2-4.3,0-2.5-.5-3.6-1.9-2.1-3.3-2.5-3.4-.6-5.1-.7-3.3.3-5,.4h1.4c.5.2.3-.1.2-.5s-.1-.6-.2-.8c-.2-.6-.4-1.2-.7-1.8-.5-1.1-1.1-2.1-1.9-2.9-2.3-2.3-5.7-2.7-8.7-1.7-5.2,1.7-9,7.1-7.2,12.6s6.5.7,5.8-1.6h0Z" fill="#f2f2f2"/>
    <path d="M278,43.6l11.9-2.4,5.6-1.1c1.6-.3,3.1-.8,4.7-.3s2.9,1,3.8,2.1,1,2.4.7,3.5c-.7,2.7-3.4,3.7-5.9,3.7s-6.7-1.7-9.8-3.1-6.3-2.7-9-4.9-4.3-4.4-4.9-7.4-.3-2.9,0-4.3.9-3.1,2.1-3.7,3-.1,4.1,0c1.8.3,3.8.8,5.4,1.7s2.4,2.8,3.3,4.3,1.9,3.4,2.5,5.3c.8,2.8,6.6,1.3,5.8-1.6s-1.6-4.1-2.8-6-2.3-4-4.1-5.3-4.3-2.1-6.5-2.6-4.6-.9-6.9-.7c-5,.5-8.1,4.5-8.9,9.2s.7,8.4,3.4,11.5,6.7,5.6,10.7,7.4,8.3,3.9,12.8,4.4,9.6-.7,12.6-4.4,2.9-7.7,0-10.6-4.5-2.8-6.9-3.3-5.6.3-8.3.8c-5.5,1.1-11,2.3-16.5,3.4s-2.7,1.5-2.3,2.9,2.2,1.6,3.5,1.4h0Z" fill="#f2f2f2"/>
    <path d="M123.2,77.3c-3.7-.7-7.5-.7-11.2,0s-7.6,1.8-10.7,4c-5.6,4.1-4.7,11-4.6,17.1s-.3,6.5-1.7,9.4-3.7,4.5-6,6.4-4.5,4.7-5.8,7.9-1.9,7-1.4,10.5,1.8,5.9,3.9,8.1,5.6,3.5,8.9,3.9c6.3.8,13.1.3,19.3-1.6s12.1-5.5,15.9-11.1,3.3-5.9,4.5-9.1,2.6-7,3.4-10.7c1.7-7.5,1.8-15.9-1.6-23s-8.8-11.2-15.8-12.4c-1.4-.2-3.1.2-4.1,1.1s-.7,1.7.5,1.9c5.3.9,9.9,4.5,12.6,9s4.2,11.9,3.6,18-2.8,13-5.3,19-5.4,9.9-10.5,12.7-9.5,3.1-14.5,3.1-5.9-.1-8.6-1.4-4.2-3.2-5.2-5.6c-2.4-5.5-1.1-12.8,2.6-17.4s4.3-3.8,6.3-5.8,3.5-4.4,4.2-7.2.8-6.3.7-9.5-.3-6.2.7-9.1,3.5-4.4,6.4-5.1,6.7-.9,10.1-.3,3.1-.2,4.1-1.1.7-1.7-.5-1.9h0Z" fill="#f2f2f2"/>
    <path d="M71.4,208.6c2.9-2.3,6.1-6,6.2-9.9s-3.1-5.8-5.5-8-2.6-2.6-3.2-4.4-.2-4-.3-6c-.1-3.6-2.6-7.2-5.6-9s-9.1-1.4-12.6,1.3-5.6,5.6-7.2,9.1-1.8,7.5-.5,11.2,3.4,7.6,5.9,10.7,6.2,5.9,10.4,6.9,9.9,0,13.7-3,.6-1.7-.5-1.9-3,.3-4.1,1.1c-2,1.5-4.7,1.2-6.9.3s-5.3-3.2-7.2-5.7-3.9-5.8-5.1-9-1.7-6.3-.6-9.6,2.8-5.5,4.9-7.7,1.6-1.8,2.5-2,2.8.8,3.6,1.6c2.5,2.1,3.7,5.2,3.6,8.4s-.2,3.2.2,4.7,1.4,2.8,2.4,4c2,2.2,5.5,4,6.2,7s-2.4,7.2-4.9,9.1-.6,1.7.5,1.9,3-.3,4.1-1.1h0Z" fill="#f2f2f2"/>
    <path d="M76.7,223.1h.8c.4,0,.8,0,1.1-.1.4,0,.8-.2,1.1-.3.3-.1.6-.3.9-.5.3-.1.5-.3.6-.6l.2-.4c0-.3,0-.5-.2-.7l-.4-.2c-.4-.1-.8-.2-1.2-.2h-.8c-.4,0-.8,0-1.1.1-.4,0-.8.2-1.1.3-.3.1-.6.3-.9.5-.3.1-.5.3-.6.6l-.2.4c0,.3,0,.5.2.7l.4.2c.4.1.8.2,1.2.2h0Z" fill="#f2f2f2"/>
    <path d="M36.1,259.4l-3.1.8c-.4,0-.7.2-1.1.4-.3.1-.6.3-.9.5-.2.1-.4.3-.5.5-.1.1-.2.3-.1.5l.2.3c.3.2.6.3.9.3.7,0,1.4,0,2.1-.2l3.1-.8c.4,0,.7-.2,1.1-.4.3-.1.6-.3.9-.5.2-.1.4-.3.5-.5.1-.1.2-.3.1-.5l-.2-.3c-.3-.2-.6-.3-.9-.3-.7,0-1.4,0-2.1.2h0Z" fill="#f2f2f2"/>
    <path d="M178.9,311.8l3.1,2.3c.3.1.6.2.9.2.4,0,.7,0,1.1,0,.4,0,.8-.1,1.2-.3.4-.1.7-.3,1-.5l.5-.4c.3-.2.5-.5.6-.9v-.4c-.1-.3-.3-.5-.6-.7l-3.1-2.3c-.3-.1-.6-.2-.9-.2-.4,0-.7,0-1.1,0-.4,0-.8.1-1.2.3-.4.1-.7.3-1,.5l-.5.4c-.3.2-.5.5-.6.9v.4c.1.3.3.5.6.7h0Z" fill="#f2f2f2"/>
    <path d="M253.4,50.7v4.6c0,.4.8.7,1.1.7.7.1,1.5,0,2.2-.2s1.4-.5,1.9-.9l.4-.4c.2-.2.3-.5.2-.8v-4.6c0-.4-.8-.7-1.1-.7-.7-.1-1.5,0-2.2.2s-1.4.5-1.9.9l-.4.4c-.2.2-.3.5-.2.8h0Z" fill="#f2f2f2"/>
    <path d="M82.7,32.3l-1.5.8c-.3.1-.6.3-.9.6-.3.2-.5.4-.6.7-.2.2-.2.5-.2.8,0,.3,0,.5.2.7l.4.4c.4.2.8.4,1.2.4h.7c.5,0,1.1-.2,1.5-.4l1.5-.8c.3-.1.6-.3.9-.6.3-.2.5-.4.6-.7.2-.2.2-.5.2-.8,0-.3,0-.5-.2-.7l-.4-.4c-.4-.2-.8-.4-1.2-.4h-.7c-.5,0-1.1.2-1.5.4h0Z" fill="#f2f2f2"/>
    <path d="M179.3,408.5c-3.5.9-6.8,2.5-9.6,4.9s-.7.8-.6,1.2.7.7,1.1.8c1.4.2,3-.2,4.1-1.1s.5-.4.8-.7.3-.2.4-.3c-.7.5-.2.1,0,0,.6-.4,1.2-.7,1.8-1.1s-.7.3,0,0,.3-.1.5-.2c.3-.1.6-.3,1-.4s.3-.1.5-.2c-.6.2-.7.2-.4.1,0,0,.2,0,.2,0,.3-.1.7-.2,1-.3.7-.2,1.4-.5,1.9-1s.7-.8.6-1.2c-.4-1.2-2.4-.8-3.3-.6h0Z" fill="#f2f2f2"/>
    <path d="M361.3,35.3l3.1-3c.2-.2.4-.5.4-.8.1-.2.1-.5,0-.8,0-.3-.2-.5-.4-.7-.2-.2-.5-.4-.8-.4-.7-.2-1.5-.2-2.2,0l-.8.3c-.4.2-.8.5-1.1.8l-3.1,3c-.2.2-.4.5-.4.8-.1.2-.1.5,0,.8,0,.3.2.5.4.7.2.2.5.4.8.4.7.2,1.5.2,2.2,0l.8-.3c.4-.2.8-.5,1.1-.8h0Z" fill="#f2f2f2"/>
    <path d="M472.7,39.4l3,3.1c.2.1.4.2.6.3.3,0,.6.1.9,0,.4,0,.7,0,1.1-.2.4,0,.8-.2,1.1-.3l.7-.3c.4-.2.7-.4.9-.7l.2-.4c0-.2,0-.4-.2-.6l-3-3.1c-.2-.1-.4-.2-.6-.3-.3,0-.6-.1-.9,0-.4,0-.7,0-1.1.2-.4,0-.8.2-1.1.3l-.7.3c-.4.2-.7.4-.9.7l-.2.4c0,.2,0,.4.2.6h0Z" fill="#f2f2f2"/>
    <path d="M246.7,128.9c-.3.5-.6,1.1-.8,1.6s-.2,1.1-.2,1.7c0,1.1.4,2.1,1,3,.2.2.4.3.6.3.3,0,.6.1.9.1.7,0,1.6-.2,2.3-.5s1.2-.5,1.6-1l.2-.4c0-.3,0-.5-.2-.7h0c0,0,.1.1.2.2-.5-.8-.8-1.8-.7-2.8v.4c0-.8.2-1.5.6-2.2l-.2.4c0,0,.1-.2.2-.3.2-.3.4-.7,0-1s-1.1-.4-1.5-.4c-.8,0-1.6.2-2.3.5s-1.2.5-1.6,1h0Z" fill="#f2f2f2"/>
    <path d="M15,418.6l-.8,2.3c0,.3,0,.5.1.7,0,.3.3.5.5.6.3.2.6.3.9.3.4,0,.7.1,1.1,0h.8c.5-.3,1-.5,1.4-.8l.5-.4c.3-.3.5-.6.5-1l.8-2.3c0-.3,0-.5-.1-.7,0-.3-.3-.5-.5-.6-.3-.2-.6-.3-.9-.3-.4,0-.7-.1-1.1,0h-.8c-.5.3-1,.5-1.4.8l-.5.4c-.3.3-.5.6-.5,1h0Z" fill="#f2f2f2"/>
  </g>
</svg>