<?xml version="1.0" encoding="UTF-8"?>
<svg id="a" xmlns="http://www.w3.org/2000/svg" xmlns:xlink="http://www.w3.org/1999/xlink"
     viewBox="0 0 490 460">
    <defs>
        <clipPath id="b">
            <rect x="75.7" y="33.7" width="420.1" height="426.6" fill="none"/>
        </clipPath>
    </defs>
    <rect width="495.8" height="460.4" fill="#f15a24"/>
    <g opacity=".5">
        <g clip-path="url(#b)">
            <path d="M454,437.5c-4.4-7.2-8.5-13.9-12.2-20.1-13.3,4.5-25.6,9.5-38.3,12.9-30.3,8-60.9,6.7-91.4,1-5.2-1-7.9-.9-10.5,4.5-4.8,9.9-11,19-16.5,28.6-1.2,2.1-2,4.6-2.8,6.9-2.8,8-4.5,9.2-12.4,6.4-29.3-10.2-48-30.6-56.8-59.6-1.7-5.7-1.5-12.4-.6-18.4,1.5-9.9,8.2-13.2,17.6-9.4,13,5.2,22.4,14.5,29.9,25.8,2.3,3.4,4.4,6.9,7.1,11,3.7-3,6.9-5.5,10.7-8.5-17.3-10.6-28.8-25.5-39.2-41.4-18-27.6-26.2-57.1-18.5-89.9,3.7-15.8,11.8-29,22.5-41.1,6.5-7.3,12.5-14.9,19.5-23.2-23.9-5.6-29.8-25-37.9-42.6-2.9-6.4-5.8-12.8-9.1-19.1-1.9-3.8-5.6-7-9.6-4.6-2.4,1.4-3.6,6.1-3.7,9.4-.2,2.5,1.8,5.3,3.3,7.8,2.9,4.9,3.6,9.6-1,14.3-2.5-1.2-4.8-2.4-7.1-3.5,1,4.7,3,9.3,2.5,13.6-.9,8.4-7.2,2.5-12.2,2.7,10,15.5,20.8,28.5,39.1,33,1.4.3,3.1.5,4.3,0,3.3-1.2,6.3-1.8,7.4,2.6,1.1,4.5,1.1,9-3.8,11.2-2.3,1-5.6,1.6-7.9.7-7-2.6-14.4-5-20.4-9.2-10.9-7.6-18.9-18.2-25.2-29.9-3.5-6.5-5.4-14-2-20.3,3-5.5,4.5-10.8,5.9-16.7.6-2.6,4.8-4.4,7.4-6.6.4.3.9.7,1.3,1,.6-4.5.8-9.1,1.9-13.4,1.4-5.8,3.7-11.5,10.6-12.4,6.7-.9,11.4,3.1,14.1,8.5,5.1,10.2,9.2,20.9,14.4,31,3.5,6.8,7.5,13.5,12.6,19.1,3.2,3.5,8.9,4.8,13.5,7,2.3,1.1,4.8,2,7.6,3.1,4.9-10.6,6.2-22.2,6.7-34,.5-12.8.6-25.7,1.2-38.5,1.2-23.2,12-41.6,30.4-55.6,19.3-14.7,39.4-28.4,62.8-36.5,9.8-3.4,19.8-3.6,29.8-1.2,6,1.5,8.6,7.1,5.7,12.4-.7,1.3-3.6,2.8-4.8,2.4-18.3-5.7-34.4,1-49.2,9.9-16.8,10-33,21.4-48.5,33.3-12.2,9.3-17.9,22.8-18.7,38-.8,15.3-1.1,30.6-2,45.9-1.4,23.7-9.6,44.8-26,62.5-4.7,5-9.2,10.3-13.5,15.6-19.2,24.3-22.3,50.8-10.4,78.9,7.2,16.9,16.9,32.4,29.8,45.8,18.4,19.3,42,27.8,68.1,30.1,21,1.9,42.2,3.6,62.9-1.2,41.6-9.6,78.8-26.9,103.9-62.9,15.3-22,21.8-47.1,23.4-73.2,1.9-32.2,3.9-64.8-2.7-96.6-6.2-29.7-13.2-59.9-37-82.1-15.9-14.9-33.8-27.3-53.4-37.2-2-1-4.9-2.4-5.2-4-.6-3.4.1-7.1.3-10.7,2.8.4,6.1,0,8.5,1.2,21.6,10.8,40.7,25,57.7,41.8,12.6,12.4,18.6,28.3,24.7,44.3,11.1,29.1,15.8,59.1,15.6,90.1-.2,29.6.6,59.2-6.2,88.4-7.4,31.9-22.2,59.3-49.1,79.5-3.7,2.8-4.2,4.9-1.6,8.6,3.1,4.4,5.4,9.4,8.9,13.6,2.2,2.7,5.6,5.1,8.9,6.1,10.9,3.1,16.8,11.1,15.3,22.2-4.1,30.6-38.7,54.6-69.3,48-16-3.5-22.8-17.9-13.3-31.2,5.3-7.4,13-13.3,20-19.3,3.2-2.8,7.6-4.3,12.6-6.9ZM425.4,476.1c3.7,1.6,6.5,3.1,9.4,3.9,23.1,5.9,52-9.3,60.3-31.3,1.8-4.8,0-7.8-4.3-8.3-10-1.1-14.8-7.9-19.3-15.3-3.9-6.3-7.7-12.7-11.8-19.5-3.4,2.3-6.3,4.2-8.7,5.8,3.8,8.2,7.8,15.6,10.6,23.3,3.8,10.4,1.5,14.5-8.5,18.9-10.9,4.8-20.6,11-27.7,22.4ZM294.2,427.1c-.2-.6-.4-1.2-.6-1.8-2.2.6-4.6.7-6.5,1.8-2.8,1.7-5.3,4.1-7.8,6.2-13.6,11.4-13.5,11.3-22.9-3.7-6.6-10.5-15-19.5-27-24.2-2.8-1.1-6.3-.3-9.5-.3,0,3-.6,6.3.4,8.9,7.4,19.3,20.1,34.2,38.8,43.9,5,2.6,10.6,4.4,15.2,6.2,7.1-13.1,13.5-25.1,20-37Z" fill="#f2f2f2"/>
            <path d="M398.4,285.5c3.2,2.2,6.2,4.7,9.6,6.6,4.2,2.4,5.9,5.7,5.5,10.3-.4,4.4-2.4,6.8-7.4,6.4-6.2-.5-12.3-.7-18.1-1.1,2.5,6.2,6.8,11.8,6.5,17.1-.6,11.4-10,1.9-15.3,5.1,6.5,6.9,14.5,11,23.7,12.7,20,3.6,38-1.6,54.5-12.5,3.7-2.4,7-5.4,10.6-7.9,1.4-1,4-2.5,4.7-2,1.5,1.1,2.9,3.4,2.7,5.1-.4,3.1-1,7-3.1,8.9-19.2,17.7-41.6,27.1-68.5,23.4-11.2-1.5-21-6.4-28.4-14.9-3.3-3.8-6-8.6-7.3-13.4-2.6-9.2.5-14,9.4-16.8,1.3-18.4,1.6-18.8,13.1-20.3,0-4.4-.4-8.9,0-13.3,1-10.3,5.8-13.1,15.3-8.8,4.3,2,8.9,4.3,12.2,7.6,14.7,14.3,30.9,11.7,47.3,4.5,6.9-3,13.1-7.5,19.5-11.5,5.2-3.3,7.9-2.4,7.9,3.7,0,2.9-1.3,6.9-3.5,8.6-12.6,10-26.4,17.5-43,19.5-9.6,1.2-17.8-1-25.3-6.9-4.8-3.7-9.8-7.1-15-10.3-1.9-1.2-4.5-1.4-6.8-2.1-.3.7-.6,1.4-1,2.1Z" fill="#f2f2f2"/>
            <path d="M376.3,225.5c-31.4.3-57.5-20-61.9-45.5-.5-3-.8-6.2-.3-9.2.3-1.6,2.3-2.9,3.5-4.4,1,1.4,2.5,2.7,3.1,4.2,1.7,4.6,2.2,9.8,4.6,14,11.5,20.3,39.5,30.9,63.7,24.2,21.8-6,39-19.1,53.9-35.4,5.5-6,10.5-12.4,15.9-18.5,1-1.1,2.9-2.5,3.8-2.2,1.2.4,2.8,2.5,2.7,3.6-.5,3.8-.6,8.2-2.8,11-14.3,18.5-30.2,35.6-51.1,47.4-11.9,6.8-24.7,10.4-35.1,10.6Z" fill="#f2f2f2"/>
            <path d="M381.7,126.7c.6,3.1,2.4,6.7,1.5,9.3-3.6,10.3-7.5,20.5-12.3,30.3-2.4,4.9-7.4,8.3-13.6,6.8-6.2-1.5-8.9-6.7-9.1-12.2-.3-8,.5-16,1.3-24,.1-1.5,2.4-2.8,3.7-4.3,1.1,1.6,3.1,3.2,3.1,4.8,0,4.3-1.3,8.6-1.3,12.9,0,2.6,1.5,5.2,2.4,7.8,2.8-1,6.9-1.2,8.1-3.1,3.9-6.5,6.8-13.5,10.1-20.4,1.2-2.6,2.3-5.4,3.4-8.1,1,0,1.9,0,2.9.1Z" fill="#f2f2f2"/>
            <path d="M387.5,156c1.4-5.6,2.5-11.2,4.2-16.7.4-1.4,2.5-2.3,3.8-3.5,1,1.5,2.8,2.9,2.8,4.4,0,3.4-1.1,6.8-1.4,10.3-.2,2.2.2,4.5.4,6.8,2.5-.5,6-.3,7.4-1.8,3.3-3.6,5.9-8,8.2-12.3,1.6-3.1,2.1-6.7,3.6-9.9.7-1.4,2.4-2.4,3.6-3.6,1,1.4,2.8,2.9,2.8,4.3,0,3.4-.2,7.1-1.4,10.3-2.6,6.7-5.2,13.5-8.9,19.7-4.2,7.1-11,9.9-16.2,8.2-5.3-1.7-8.3-7.5-8.9-16.2Z" fill="#f2f2f2"/>
            <path d="M422.5,123.8c-12.1-1-22.3-3.9-30.5-11.4-1.8-1.7-3.7-4.3-3.9-6.6-.2-2.8,1.4-5.7,2.1-8.6,2.1,1,4.5,1.7,6.4,3.1,7.6,5.7,16.4,8,25.8,8.6,5.8.4,6.4,4.4,6.2,8.8-.2,4.6-2.6,6.9-6.2,6.1Z" fill="#f2f2f2"/>
            <path d="M376.8,104.2c-1.2,2.8-1.8,5.5-3.3,7.6-5.8,7.9-13.4,13.7-22.8,16.9-3.2,1.1-6.9,2.5-8.4-2.1-1.4-4.3-2-9.6,3.2-11.2,10-3.2,18.2-8.3,24.5-16.5.6-.7,2.9-1.3,3.1-1,1.4,1.9,2.4,4,3.6,6.3Z" fill="#f2f2f2"/>
            <path d="M289.7,314.3c-2.1,2.7-4.3,5.4-6.4,8-2.4-1.9-4.8-3.8-7-5.9-.8-.8-1.3-2.2-1.5-3.4-.7-3.9-1.5-8.2,3.3-10.1,3.8-1.5,8.8,2.5,9.9,7.3.2,1,.3,2,.5,3.1.4.3.8.6,1.2.9Z" fill="#f2f2f2"/>
            <path d="M411,384c.2,7.3-2.2,10.9-7.2,11.4-4.8.5-5.4-3.7-5.6-7.3-.3-5.5,3-9.5,7.9-8.6,2.3.5,4.1,3.6,5,4.4Z" fill="#f2f2f2"/>
            <path d="M274.6,282.1c0,.2,0,.4,0,.6-1.5,3.4-3,6.9-4.7,10.2,0,.2-3-.4-3.1-.9-.6-3.8-.9-7.6-1.1-11.4,0-.9.6-2.1,1.3-2.7,1.4-1.3,3.1-2.3,4.7-3.5.9,1.7,2,3.4,2.8,5.2.3.7,0,1.6,0,2.5,0,0,0,0,0,0Z" fill="#f2f2f2"/>
            <path d="M472.6,189.3c0-.4,0-.8,0-1.2,1-3.6.5-8.6,5.8-8.7,1.5,0,4,3.6,4.5,5.9,1,5-1.7,8.9-6.3,10.6-.9.3-3.4-3.7-5.2-5.7.4-.3.8-.6,1.1-.9Z" fill="#f2f2f2"/>
            <path d="M252.8,312.5c2.9-3.6,5.2-6.5,7.4-9.3,1.4,2.4,4.1,5.1,3.8,7.3-.6,3.4-3.3,6.4-5.1,9.6-1.8-2.2-3.5-4.4-6.1-7.6Z" fill="#f2f2f2"/>
            <path d="M392.2,381.7c-2.1,3-4.1,5.7-6,8.4-1.2-3.4-3.4-6.7-3.3-10.1,0-2.5,2.9-5,4.6-7.6,1.4,2.7,2.8,5.5,4.8,9.2Z" fill="#f2f2f2"/>
            <path d="M499.5,174.2c-2.4,3.3-4.4,5.9-6.3,8.6-1.3-2.5-4-5.1-3.7-7.4.4-3.2,3.1-6,4.7-9,1.6,2.4,3.1,4.8,5.2,7.9Z" fill="#f2f2f2"/>
        </g>
    </g>
</svg>