<?xml version="1.0" encoding="UTF-8"?>
<svg xmlns="http://www.w3.org/2000/svg" version="1.1" xmlns:xlink="http://www.w3.org/1999/xlink" viewBox="0 0 32 32">
  <defs>
    <style>
      .cls-1 {
        fill: #fff;
      }

      .cls-2 {
        fill: none;
      }

      .cls-3 {
        fill: #f15a24;
      }

      .cls-4 {
        clip-path: url(#clippath);
      }
    </style>
    <clipPath id="clippath">
      <path class="cls-2" d="M0,8.4C0,3.8,3.8,0,8.4,0h15.2c4.6,0,8.4,3.8,8.4,8.4v15.2c0,4.7-3.8,8.4-8.4,8.4h-15.2C3.7,32,0,28.2,0,23.6,0,23.6,0,8.4,0,8.4Z"/>
    </clipPath>
  </defs>
  <!-- Generator: Adobe Illustrator 28.7.1, SVG Export Plug-In . SVG Version: 1.2.0 Build 142)  -->
  <g>
    <g id="Capa_1">
      <g id="Capa_1-2" data-name="Capa_1">
        <path class="cls-3" d="M0,8.4C0,3.8,3.8,0,8.4,0h15.2c4.6,0,8.4,3.8,8.4,8.4v15.2c0,4.7-3.8,8.4-8.4,8.4h-15.2C3.7,32,0,28.2,0,23.6,0,23.6,0,8.4,0,8.4Z"/>
        <g class="cls-4">
          <g>
            <path class="cls-1" d="M31.6,59.2c-.7-.9-1.2-2.1-1.9-2.8-1.9.7-3.8,1.4-5.7,1.9-4.5,1.2-9,.9-13.5,0-.7,0-1.2,0-1.7.7-.7,1.4-1.7,2.8-2.4,4.3,0,.2-.2.7-.5.9-.5,1.2-.7,1.4-1.9.9C0,63.7-2.8,60.6-4,56.4c-.2-.9,0-1.9,0-2.6,0-1.4,1.2-1.9,2.6-1.4,1.9.7,3.3,2.1,4.5,3.8.2.5.7.9.9,1.7.5-.5.9-.7,1.7-1.2-2.6-1.7-4.3-3.8-5.7-6.1-2.6-4-3.8-8.5-2.8-13.2.5-2.4,1.7-4.3,3.3-6.1.9-.9,1.9-2.1,2.8-3.3-3.5-.9-4.5-3.8-5.7-6.1l-1.4-2.8c-.2-.5-.9-.9-1.4-.7-.2,0-.5.9-.5,1.4s.2.7.5,1.2c.5.7.5,1.4,0,2.1-.2,0-.7-.2-.9-.5,0,.7.5,1.4.5,1.9,0,1.2-.9.5-1.9.5,1.4,2.4,3.1,4.3,5.7,4.7h.7c.5,0,.9-.2,1.2.5s0,1.4-.5,1.7h-1.2c-.9-.5-2.1-.7-3.1-1.4-1.7-1.2-2.8-2.6-3.8-4.5-.5-.9-.7-2.1-.2-3.1.5-.7.7-1.7.9-2.4,0-.5.7-.7,1.2-.9h0c0-.7,0-1.4.2-1.9,0-.9.5-1.7,1.7-1.9.9,0,1.7.5,2.1,1.2.7,1.4,1.4,3.1,2.1,4.5.5.9,1.2,1.9,1.9,2.8.5.5,1.4.7,1.9.9.2,0,.7.2,1.2.5.7-1.7.9-3.3.9-5v-5.7c0-3.3,1.7-6.1,4.5-8.3S15.8,2.3,19.1,1.1c1.4-.5,2.8-.5,4.5,0,.9,0,1.2.9.9,1.9,0,0-.5.5-.7.2-2.6-.9-5,0-7.3,1.4s-4.7,3.1-7.1,5c-1.9,1.4-2.6,3.3-2.8,5.7,0,2.1,0,4.5-.2,6.6,0,3.5-1.4,6.6-3.8,9.2-.7.7-1.4,1.4-1.9,2.4-2.8,3.5-3.3,7.6-1.7,11.6.9,2.6,2.6,4.7,4.3,6.6,2.6,2.8,6.1,4,9.9,4.5,3.1.2,6.1.5,9.2,0,6.1-1.4,11.6-4,15.4-9.2,2.1-3.3,3.3-6.8,3.5-10.6.2-4.7.5-9.4-.5-14.2-.9-4.3-1.9-8.7-5.4-12-2.4-2.1-5-4-7.8-5.4-.2,0-.7-.2-.7-.5v-1.7h1.2c3.1,1.7,5.9,3.8,8.5,6.1,1.9,1.9,2.8,4.3,3.5,6.6,1.7,4.3,2.4,8.7,2.4,13.2s0,8.7-.9,13c-1.2,4.7-3.3,8.7-7.3,11.6-.5.5-.7.7,0,1.2.5.7.7,1.4,1.4,1.9.2.5.9.7,1.4.9,1.7.5,2.4,1.7,2.1,3.3-.7,4.5-5.7,8-10.2,7.1-2.4-.5-3.3-2.6-1.9-4.5.7-1.2,1.9-1.9,2.8-2.8s1.2-.7,1.9-.9h-.2ZM27.4,64.9c.5,0,.9.5,1.4.5,3.3.9,7.6-1.4,8.7-4.5.2-.7,0-1.2-.7-1.2-1.4,0-2.1-1.2-2.8-2.1-.5-.9-1.2-1.9-1.7-2.8-.5.2-.9.7-1.2.9.5,1.2,1.2,2.4,1.7,3.5.5,1.7,0,2.1-1.2,2.8-1.7.7-3.1,1.7-4,3.3h0l-.2-.5ZM8.3,57.5v-.2c-.2,0-.7,0-.9.2-.5.2-.7.7-1.2.9-1.3,1.1-2.4.9-3.3-.5-.9-1.7-2.1-2.8-4-3.5h-1.4v1.4c1.2,2.8,2.8,5,5.7,6.4.7.5,1.7.7,2.1.9.9-1.9,1.9-3.8,2.8-5.4h0l.2-.2Z"/>
            <path class="cls-1" d="M23.4,36.8c.5.2.9.7,1.4.9.7.2.9.9.7,1.4,0,.7-.2.9-1.2.9h-2.6c.5.9.9,1.7.9,2.6,0,1.7-1.4.2-2.1.7.9.9,2.1,1.7,3.5,1.9,2.8.5,5.7,0,8-1.9.5-.2.9-.7,1.7-1.2,0,0,.5-.2.7-.2,0,0,.5.5.5.7,0,.5,0,.9-.5,1.4-2.8,2.6-6.1,4-10.2,3.5-1.7,0-3.1-.9-4.3-2.1s-.9-1.2-1.2-1.9c-.5-1.4,0-2.1,1.4-2.4,0-2.6,0-2.8,1.9-3.1v-1.9c0-1.4.9-1.9,2.1-1.2.7.2,1.4.7,1.9,1.2,2.1,2.1,4.5,1.7,6.8.7.9-.5,1.9-1.2,2.8-1.7.7-.5,1.2-.2,1.2.5s0,.9-.5,1.2c-1.9,1.4-3.8,2.6-6.4,2.8-1.4,0-2.6,0-3.8-.9-.7-.5-1.4-.9-2.1-1.4-.2,0-.7,0-.9-.2v.2h0v-.7Z"/>
            <path class="cls-1" d="M20.3,28c-4.7,0-8.5-2.8-9-6.6v-1.4s.2-.5.5-.7c0,0,.2.5.5.7.2.7.2,1.4.7,2.1,1.7,3.1,5.9,4.5,9.4,3.5,3.3-.9,5.7-2.8,8-5.2.7-.9,1.7-1.9,2.4-2.8l.5-.2s.5.2.5.5c0,.5,0,1.2-.5,1.7-2.1,2.8-4.5,5.2-7.6,6.8-1.7.9-3.5,1.7-5.2,1.7h-.2Z"/>
            <path class="cls-1" d="M21,13.4c0,.5.2.9,0,1.4-.5,1.4-1.2,3.1-1.9,4.5-.2.7-1.2,1.2-2.1.9-.9,0-1.4-.9-1.4-1.9v-3.5s.2-.5.5-.7c0,0,.5.5.5.7v1.9q0,.7.2,1.2c.5,0,.9,0,1.2-.5.5-.9.9-1.9,1.4-3.1,0-.5.2-.7.5-1.2h.5l.7.2Z"/>
            <path class="cls-1" d="M22,17.9c0-.9.5-1.7.7-2.4l.5-.5s.5.5.5.7v2.4c.5,0,.9,0,1.2-.2.5-.5.9-1.2,1.2-1.9,0-.5.2-.9.5-1.4l.5-.5s.5.5.5.7v1.4c-.5.9-.7,1.9-1.4,2.8-.7.9-1.7,1.4-2.4,1.2s-1.2-1.2-1.4-2.4h-.2Z"/>
            <path class="cls-1" d="M26.9,13.1c-1.7,0-3.3-.5-4.5-1.7-.2-.2-.5-.7-.5-.9,0-.5,0-.9.2-1.2.2,0,.7.2.9.5,1.2.9,2.4,1.2,3.8,1.2s.9.7.9,1.2c0,.7-.5.9-.9.9Z"/>
            <path class="cls-1" d="M20.3,10.1c0,.5-.2.7-.5,1.2-.9,1.2-1.9,2.1-3.3,2.6-.5,0-.9.5-1.2-.2,0-.7-.2-1.4.5-1.7,1.4-.5,2.6-1.2,3.5-2.4h.5c0,.2.2.7.5.9h0v-.5Z"/>
            <path class="cls-1" d="M7.6,41c-.2.5-.7.7-.9,1.2-.2-.2-.7-.5-.9-.9v-.5c0-.5,0-1.2.5-1.4.5,0,1.2.2,1.4,1.2v.5h0Z"/>
            <path class="cls-1" d="M25.3,51.2c0,1.2-.2,1.7-.9,1.7s-.7-.5-.9-.9c0-.7.5-1.4,1.2-1.2.2,0,.7.5.7.7v-.2Z"/>
            <path class="cls-1" d="M5.2,36.3h0c0,.7-.5,1.2-.7,1.7h-.5v-2.1s.5-.2.7-.5c0,.2.2.5.5.7v.2h0Z"/>
            <path class="cls-1" d="M34.5,22.6h0c0-.7,0-1.4.9-1.4,0,0,.5.5.7.9,0,.7-.2,1.4-.9,1.7,0,0-.5-.5-.7-.9h0v-.2Z"/>
            <path class="cls-1" d="M2.1,40.8c.5-.5.7-.9,1.2-1.4,0,.2.7.7.5.9,0,.5-.5.9-.7,1.4-.2-.2-.5-.7-.9-1.2h0v.2Z"/>
            <path class="cls-1" d="M22.4,50.9c-.2.5-.7.9-.9,1.2,0-.5-.5-.9-.5-1.4s.5-.7.7-1.2c0,.5.5.7.7,1.4h0Z"/>
            <path class="cls-1" d="M38.3,20.5c-.2.5-.7.9-.9,1.2,0-.2-.5-.7-.5-1.2s.5-.9.7-1.4c0,.2.5.7.7,1.2v.2Z"/>
          </g>
        </g>
      </g>
    </g>
  </g>
</svg>