<?xml version="1.0" encoding="UTF-8"?>
<svg id="a" xmlns="http://www.w3.org/2000/svg" viewBox="0 0 414.6 230.8">
    <path d="M126.9,186.2c-2-3.3-3.9-6.4-5.6-9.2-6.1,2.1-11.7,4.4-17.5,5.9-13.9,3.7-27.9,3.1-41.9.4-2.4-.5-3.6-.4-4.8,2.1-2.2,4.5-5.1,8.7-7.6,13.1-.6,1-.9,2.1-1.3,3.2-1.3,3.7-2.1,4.2-5.7,2.9-13.4-4.7-22-14-26-27.3-.8-2.6-.7-5.7-.3-8.4.7-4.5,3.7-6,8-4.3,5.9,2.4,10.2,6.6,13.7,11.8,1,1.6,2,3.2,3.2,5,1.7-1.4,3.1-2.5,4.9-3.9-7.9-4.9-13.2-11.7-18-19-8.3-12.6-12-26.2-8.5-41.2,1.7-7.2,5.4-13.3,10.3-18.8,3-3.3,5.7-6.8,8.9-10.6-11-2.6-13.7-11.5-17.4-19.5-1.4-2.9-2.7-5.9-4.2-8.7-.9-1.7-2.6-3.2-4.4-2.1-1.1.6-1.6,2.8-1.7,4.3,0,1.2.8,2.4,1.5,3.6,1.3,2.3,1.7,4.4-.4,6.6-1.1-.6-2.2-1.1-3.3-1.6.4,2.2,1.4,4.2,1.2,6.2-.4,3.8-3.3,1.2-5.6,1.3,4.6,7.1,9.5,13.1,17.9,15.1.6.2,1.4.2,2,0,1.5-.5,2.9-.8,3.4,1.2.5,2,.5,4.1-1.8,5.1-1.1.5-2.6.7-3.6.3-3.2-1.2-6.6-2.3-9.3-4.2-5-3.5-8.6-8.3-11.5-13.7-1.6-3-2.5-6.4-.9-9.3,1.4-2.5,2.1-5,2.7-7.6.3-1.2,2.2-2,3.4-3,.2.2.4.3.6.5.3-2.1.4-4.1.8-6.2.6-2.6,1.7-5.3,4.9-5.7,3.1-.4,5.2,1.4,6.5,3.9,2.3,4.7,4.2,9.6,6.6,14.2,1.6,3.1,3.4,6.2,5.8,8.7,1.5,1.6,4.1,2.2,6.2,3.2,1.1.5,2.2.9,3.5,1.4,2.2-4.9,2.8-10.2,3-15.6.2-5.9.3-11.8.6-17.6.5-10.6,5.5-19,13.9-25.5,8.9-6.8,18.1-13,28.8-16.7,4.5-1.6,9.1-1.7,13.7-.5,2.8.7,4,3.3,2.6,5.7-.3.6-1.6,1.3-2.2,1.1-8.4-2.6-15.8.5-22.5,4.5-7.7,4.6-15.1,9.8-22.2,15.3-5.6,4.3-8.2,10.4-8.6,17.4-.3,7-.5,14-.9,21-.6,10.9-4.4,20.5-11.9,28.6-2.1,2.3-4.2,4.7-6.2,7.2-8.8,11.1-10.2,23.3-4.8,36.1,3.3,7.8,7.8,14.8,13.6,21,8.4,8.9,19.2,12.7,31.2,13.8,9.6.9,19.3,1.7,28.8-.5,19.1-4.4,36.1-12.3,47.6-28.8,7-10.1,10-21.6,10.7-33.5.9-14.8,1.8-29.7-1.2-44.3-2.8-13.6-6.1-27.4-16.9-37.6-7.3-6.8-15.5-12.5-24.5-17.1-.9-.5-2.2-1.1-2.4-1.8-.3-1.6,0-3.3.2-4.9,1.3.2,2.8,0,3.9.6,9.9,4.9,18.6,11.5,26.4,19.2,5.8,5.7,8.5,13,11.3,20.3,5.1,13.3,7.2,27.1,7.1,41.3-.1,13.6.3,27.1-2.8,40.5-3.4,14.6-10.2,27.2-22.5,36.4-1.7,1.3-1.9,2.3-.7,3.9,1.4,2,2.5,4.3,4.1,6.2,1,1.2,2.6,2.4,4.1,2.8,5,1.4,7.7,5.1,7,10.2-1.9,14-17.7,25-31.7,22-7.3-1.6-10.4-8.2-6.1-14.3,2.4-3.4,5.9-6.1,9.2-8.9,1.5-1.3,3.5-2,5.7-3.2ZM113.9,203.9c1.7.7,3,1.4,4.3,1.8,10.6,2.7,23.8-4.2,27.6-14.3.8-2.2,0-3.6-2-3.8-4.6-.5-6.8-3.6-8.8-7-1.8-2.9-3.5-5.8-5.4-8.9-1.6,1-2.9,1.9-4,2.6,1.7,3.8,3.6,7.1,4.8,10.7,1.7,4.8.7,6.6-3.9,8.7-5,2.2-9.4,5.1-12.7,10.3ZM53.7,181.5c0-.3-.2-.6-.3-.8-1,.3-2.1.3-3,.8-1.3.8-2.4,1.9-3.6,2.8-6.2,5.2-6.2,5.2-10.5-1.7-3-4.8-6.9-8.9-12.4-11.1-1.3-.5-2.9-.1-4.4-.1,0,1.4-.3,2.9.2,4.1,3.4,8.8,9.2,15.7,17.8,20.1,2.3,1.2,4.8,2,7,2.9,3.2-6,6.2-11.5,9.1-17Z" fill="#f15a24"/>
    <path d="M101.5,116.6c1.5,1,2.8,2.2,4.4,3,1.9,1.1,2.7,2.6,2.5,4.7-.2,2-1.1,3.1-3.4,2.9-2.8-.2-5.7-.3-8.3-.5,1.2,2.8,3.1,5.4,3,7.8-.3,5.2-4.6.9-7,2.3,3,3.2,6.6,5,10.9,5.8,9.1,1.7,17.4-.7,25-5.7,1.7-1.1,3.2-2.5,4.8-3.6.7-.5,1.8-1.1,2.1-.9.7.5,1.3,1.6,1.3,2.3-.2,1.4-.4,3.2-1.4,4.1-8.8,8.1-19.1,12.4-31.4,10.7-5.1-.7-9.6-2.9-13-6.8-1.5-1.7-2.7-4-3.4-6.1-1.2-4.2.2-6.4,4.3-7.7.6-8.4.7-8.6,6-9.3,0-2-.2-4.1,0-6.1.5-4.7,2.7-6,7-4,2,.9,4.1,2,5.6,3.5,6.7,6.5,14.1,5.4,21.7,2,3.1-1.4,6-3.4,8.9-5.3,2.4-1.5,3.6-1.1,3.6,1.7,0,1.4-.6,3.2-1.6,4-5.8,4.6-12.1,8-19.7,8.9-4.4.5-8.2-.5-11.6-3.1-2.2-1.7-4.5-3.3-6.8-4.7-.9-.6-2.1-.7-3.1-1-.1.3-.3.6-.4,1Z" fill="#f15a24"/>
    <path d="M91.4,89.1c-14.4.1-26.3-9.2-28.3-20.8-.2-1.4-.3-2.9-.1-4.2.1-.7,1.1-1.3,1.6-2,.5.6,1.1,1.2,1.4,1.9.8,2.1,1,4.5,2.1,6.4,5.3,9.3,18.1,14.1,29.2,11.1,10-2.7,17.9-8.7,24.7-16.2,2.5-2.7,4.8-5.7,7.3-8.5.4-.5,1.3-1.1,1.8-1,.6.2,1.3,1.1,1.2,1.7-.2,1.7-.3,3.8-1.3,5-6.6,8.5-13.8,16.3-23.4,21.7-5.5,3.1-11.3,4.8-16.1,4.9Z" fill="#f15a24"/>
    <path d="M93.8,43.9c.3,1.4,1.1,3.1.7,4.3-1.6,4.7-3.4,9.4-5.6,13.9-1.1,2.2-3.4,3.8-6.3,3.1-2.9-.7-4.1-3-4.2-5.6-.1-3.7.2-7.3.6-11,0-.7,1.1-1.3,1.7-1.9.5.7,1.4,1.5,1.4,2.2,0,2-.6,3.9-.6,5.9,0,1.2.7,2.4,1.1,3.6,1.3-.5,3.2-.5,3.7-1.4,1.8-3,3.1-6.2,4.6-9.3.6-1.2,1-2.5,1.5-3.7.4,0,.9,0,1.3,0Z" fill="#f15a24"/>
    <path d="M96.5,57.3c.6-2.6,1.2-5.1,1.9-7.7.2-.6,1.1-1.1,1.7-1.6.5.7,1.3,1.3,1.3,2,0,1.6-.5,3.1-.7,4.7,0,1,0,2.1.2,3.1,1.2-.3,2.8-.1,3.4-.8,1.5-1.7,2.7-3.6,3.7-5.6.7-1.4,1-3.1,1.6-4.5.3-.7,1.1-1.1,1.7-1.6.5.7,1.3,1.3,1.3,2,0,1.6,0,3.2-.6,4.7-1.2,3.1-2.4,6.2-4.1,9-1.9,3.2-5,4.5-7.4,3.8-2.4-.8-3.8-3.5-4.1-7.4Z" fill="#f15a24"/>
    <path d="M112.5,42.5c-5.5-.5-10.2-1.8-13.9-5.2-.8-.8-1.7-2-1.8-3-.1-1.3.6-2.6,1-3.9,1,.5,2.1.8,2.9,1.4,3.5,2.6,7.5,3.6,11.8,3.9,2.7.2,2.9,2,2.8,4,0,2.1-1.2,3.1-2.8,2.8Z" fill="#f15a24"/>
    <path d="M91.6,33.6c-.5,1.3-.8,2.5-1.5,3.5-2.7,3.6-6.1,6.3-10.4,7.8-1.5.5-3.1,1.2-3.8-1-.7-2-.9-4.4,1.5-5.1,4.6-1.5,8.3-3.8,11.2-7.6.3-.3,1.3-.6,1.4-.5.6.9,1.1,1.9,1.7,2.9Z" fill="#f15a24"/>
    <path d="M51.7,129.8c-1,1.2-1.9,2.5-2.9,3.7-1.1-.9-2.2-1.7-3.2-2.7-.4-.4-.6-1-.7-1.5-.3-1.8-.7-3.8,1.5-4.6,1.7-.7,4,1.1,4.5,3.4.1.5.2.9.2,1.4.2.1.4.3.5.4Z" fill="#f15a24"/>
    <path d="M107.3,161.7c0,3.4-1,5-3.3,5.2-2.2.2-2.5-1.7-2.6-3.3-.2-2.5,1.4-4.4,3.6-3.9,1.1.2,1.9,1.7,2.3,2Z" fill="#f15a24"/>
    <path d="M44.8,115.1c0,0,0,.2,0,.3-.7,1.6-1.4,3.2-2.1,4.7,0,0-1.4-.2-1.4-.4-.3-1.7-.4-3.5-.5-5.2,0-.4.3-1,.6-1.3.7-.6,1.4-1.1,2.1-1.6.4.8.9,1.6,1.3,2.4.1.3,0,.7,0,1.1,0,0,0,0,0,0Z" fill="#f15a24"/>
    <path d="M135.5,72.5c0-.2,0-.4,0-.6.4-1.6.2-3.9,2.6-4,.7,0,1.8,1.7,2.1,2.7.5,2.3-.8,4.1-2.9,4.9-.4.1-1.6-1.7-2.4-2.6.2-.1.4-.3.5-.4Z" fill="#f15a24"/>
    <path d="M34.8,129c1.3-1.7,2.4-3,3.4-4.3.6,1.1,1.9,2.3,1.7,3.3-.3,1.6-1.5,2.9-2.3,4.4-.8-1-1.6-2-2.8-3.5Z" fill="#f15a24"/>
    <path d="M98.6,160.7c-1,1.4-1.9,2.6-2.8,3.8-.6-1.5-1.6-3.1-1.5-4.6,0-1.2,1.3-2.3,2.1-3.5.7,1.3,1.3,2.5,2.2,4.2Z" fill="#f15a24"/>
    <path d="M147.8,65.6c-1.1,1.5-2,2.7-2.9,3.9-.6-1.1-1.8-2.3-1.7-3.4.2-1.5,1.4-2.8,2.2-4.1.7,1.1,1.4,2.2,2.4,3.6Z" fill="#f15a24"/>
    <path d="M202.9,76.2l13.3,3.9v6.6c0,8.4-7.7,15.1-17.1,15.1h-5.1c-9.5,0-17.1-6.7-17.1-15.1V31.4c0-8.3,7.6-15.1,17.1-15.1h5.1c9.3,0,17.1,6.8,17.1,15.1v6.8l-13.3,3.9v-10.7c0-2-2-3.8-4.3-3.8h-4c-2.4,0-4.3,1.8-4.3,3.8v55.3c0,2,1.9,3.8,4.3,3.8h4c2.3,0,4.3-1.8,4.3-3.8v-10.5Z"/>
    <path d="M245.3,76h-4.5v25h-13.3V17h20.8c9.3,0,17.1,6.8,17.1,15.1v28.8c0,5.2-3.1,9.8-7.6,12.5l9.1,27.6h-13.3l-8.1-25ZM246.4,64.7c3.7,0,5.6-1.7,5.6-5v-26.4c0-3.3-1.9-5-5.6-5h-5.6v36.4h5.6Z"/>
    <path d="M274,86.7V31.4c0-8.3,7.6-15.1,17.1-15.1h5.1c9.3,0,17.1,6.8,17.1,15.1v55.3c0,8.4-7.7,15.1-17.1,15.1h-5.1c-9.5,0-17.1-6.7-17.1-15.1ZM287.3,31.4v55.3c0,2,1.9,3.8,4.3,3.8h4c2.3,0,4.3-1.8,4.3-3.8V31.4c0-2-2-3.8-4.3-3.8h-4c-2.4,0-4.3,1.8-4.3,3.8Z"/>
    <path d="M350.3,76.2l13.3,3.9v6.6c0,8.4-7.7,15.1-17.1,15.1h-5.1c-9.5,0-17.1-6.7-17.1-15.1V31.4c0-8.3,7.6-15.1,17.1-15.1h5.1c9.3,0,17.1,6.8,17.1,15.1v6.8l-13.3,3.9v-10.7c0-2-2-3.8-4.3-3.8h-4c-2.4,0-4.3,1.8-4.3,3.8v55.3c0,2,1.9,3.8,4.3,3.8h4c2.3,0,4.3-1.8,4.3-3.8v-10.5Z"/>
    <path d="M413.5,101.1h-13.6l-1.5-13.6h-14l-1.3,13.6h-13.6l11.2-84.1h21.6l11.2,84.1ZM397.1,76.2l-5.2-47.7h-.9l-5.2,47.7h11.3Z"/>
    <path d="M202.5,176.4l13.3,3.9v6.6c0,8.4-7.7,15.1-17.1,15.1h-5.1c-9.5,0-17.1-6.7-17.1-15.1v-55.3c0-8.3,7.6-15.1,17.1-15.1h5.1c9.3,0,17.1,6.8,17.1,15.1v6.8l-13.3,3.9v-10.7c0-2-2-3.8-4.3-3.8h-4c-2.4,0-4.3,1.8-4.3,3.8v55.3c0,2,1.9,3.8,4.3,3.8h4c2.3,0,4.3-1.8,4.3-3.8v-10.5Z"/>
    <path d="M264.9,117.2v84.1h-13.3v-59h-11.2v59h-13.3v-84.1h13.3v13.7h11.2v-13.7h13.3Z"/>
    <path d="M277.7,117.2h13.3v84.1h-13.3v-84.1Z"/>
    <path d="M341.7,132.3v28.8c0,8.4-7.7,15.1-17.2,15.1h-7.3v25h-13.3v-84.1h20.7c9.5,0,17.2,6.8,17.2,15.1ZM328.4,133.5c0-3.3-2-5-5.7-5h-5.5v36.4h5.5c3.7,0,5.7-1.7,5.7-5v-26.4Z"/>
    <path d="M388.4,171.2v15.7c0,8.4-7.7,15.1-17.1,15.1h-5.1c-9.5,0-17.1-6.7-17.1-15.1v-6.6l13.3-3.9v10.5c0,2,1.9,3.8,4.3,3.8h4c2.3,0,4.3-1.8,4.3-3.8v-17.8c0-4.4-1.2-6.1-5.7-8.1l-9.3-4.1c-5.7-2.6-10.7-8.3-10.7-15.5v-9.7c0-8.3,7.6-15.1,17.1-15.1h4.5c9.5,0,17.1,6.8,17.1,15.1v6.8l-13.3,3.9v-10.7c0-2-2-3.8-4.3-3.8h-3.5c-2.3,0-4.3,1.8-4.3,3.8v7.8c0,5.3.9,6,5.1,7.8l10,4.4c10.7,4.7,10.7,12.8,10.7,19.6Z"/>
</svg>