<?xml version="1.0" encoding="UTF-8"?>
<svg xmlns="http://www.w3.org/2000/svg" version="1.1" viewBox="0 0 24 24">
  <!-- Generator: Adobe Illustrator 28.7.1, SVG Export Plug-In . SVG Version: 1.2.0 Build 142)  -->
  <g>
    <g id="Capa_1">
      <path 
            fill-rule="evenodd"
      clip-rule="evenodd"
      d="M24,2.3v19.3s0,0,0,0c-.1,1-.6,1.6-1.5,2-.3.1-.5.2-.8.2H5.8c-.2,0-.5,0-.7-.2-1-.4-1.7-1.3-1.7-2.4,0-.8,0-1.6,0-2.4v-.2h-.2c-.5,0-1,0-1.6,0-.7,0-1.2-.3-1.5-.9-.1-.2-.2-.4-.2-.6,0-3.6,0-7.1,0-10.7,0,0,0,0,0,0,.1-.9.8-1.5,1.7-1.5.5,0,1,0,1.5,0,0,0,0,0,.1,0v-.2c0-.8,0-1.6,0-2.4,0-1.1.7-2.1,1.8-2.4C5.4,0,5.6,0,5.8,0c5.3,0,10.6,0,15.9,0,0,0,0,0,0,0,1,.1,1.7.7,2.1,1.7,0,.2.1.4.2.7ZM13.7,6.9c0,0,.1,0,.2,0,1.9,0,3.9,0,5.8,0,.4,0,.7.2.8.5.2.6-.2,1.2-.8,1.2-1.9,0-3.9,0-5.8,0,0,0-.1,0-.2,0v1.7h.2c1.9,0,3.8,0,5.7,0,.1,0,.3,0,.4,0,.4.2.6.6.5,1,0,.4-.4.7-.9.7-1.9,0-3.9,0-5.8,0h-.2v1.7h.2c1.9,0,3.9,0,5.8,0,.1,0,.3,0,.4.1.4.2.5.6.4,1,0,.4-.4.6-.8.6-1.9,0-3.9,0-5.8,0,0,0-.1,0-.2,0v.2c0,.5,0,1,0,1.5,0,1-.8,1.8-1.8,1.8-2.2,0-4.4,0-6.7,0h-.2c0,.9,0,1.7,0,2.6,0,.5.4.8.8.8,5.1,0,10.3,0,15.4,0,.5,0,.8-.4.8-.8,0-6.3,0-12.6,0-18.9,0-.5-.4-.8-.8-.8-5.1,0-10.3,0-15.4,0-.5,0-.9.4-.9.9,0,.8,0,1.6,0,2.5,0,0,0,0,0,.1,0,0,.1,0,.2,0,2.2,0,4.4,0,6.7,0,.5,0,1,.2,1.3.6.3.3.4.7.4,1.1ZM6.9,10.4s0,0,0,0c-.3-.4-.6-.9-.9-1.4,0,0,0,0-.2,0-.6,0-1.1,0-1.7,0,0,0-.1,0-.2,0,.2.3.3.5.5.7.5.8,1,1.5,1.5,2.3,0,0,0,.1,0,.2-.5.7-.9,1.4-1.4,2.1-.2.3-.4.6-.6.9,0,0,0,0,0,0,.6,0,1.3,0,1.9,0,0,0,0,0,.1,0,.2-.2.3-.5.5-.7.2-.2.3-.5.5-.7.3.5.7,1,1,1.5,0,0,0,.1.2.1.6,0,1.1,0,1.7,0h.3c-.7-1.1-1.4-2.1-2.1-3.1.7-1,1.4-2.1,2-3.1-.7,0-1.3,0-1.9,0,0,0-.1,0-.2.1-.3.5-.6.9-1,1.4Z"
      fill="currentColor"
      />
    </g>
  </g>
</svg>