<?xml version="1.0" encoding="UTF-8"?>
<svg xmlns="http://www.w3.org/2000/svg" version="1.1" viewBox="0 0 24 24">
  <!-- Generator: Adobe Illustrator 28.7.1, SVG Export Plug-In . SVG Version: 1.2.0 Build 142)  -->
  <g>
    <g id="Capa_1">
      <path 
        fill-rule="evenodd"
        clip-rule="evenodd"
        d="M6,19c-.6,0-1.2,0-1.8,0-1.4,0-2.2-.8-2.2-2.2,0-2.2,0-4.4,0-6.6,0-1.8,1.5-3.3,3.2-3.2.1,0,.3,0,.4,0,.3,0,.4-.1.4-.4,0-1.3,0-2.7,0-4,0-.4.1-.5.5-.5,3.6,0,7.3,0,10.9,0,.5,0,.6.2.6.6,0,1.2,0,2.3,0,3.5,0,.9,0,.9.9.9,1.4,0,2.3.7,2.8,1.8.2.4.3.9.3,1.4,0,2.2,0,4.4,0,6.6,0,1.4-.8,2.2-2.2,2.2-.6,0-1.2,0-1.8,0,0,.9,0,1.7,0,2.5,0,.4-.1.6-.6.6-3.6,0-7.3,0-10.9,0-.4,0-.6-.1-.6-.6,0-.8,0-1.6,0-2.5ZM20,16.9c0-2.4,0-4.7,0-7,0-.6-.4-1-1.1-1-4.6,0-9.2,0-13.7,0-.8,0-1.2.4-1.2,1.2,0,1.5,0,3.1,0,4.6,0,.7,0,1.4,0,2.2.6,0,1.1,0,1.6,0,.3,0,.4,0,.4-.4,0-.7,0-1.4,0-2.1,0-.4.1-.5.5-.5,3.7,0,7.4,0,11,0,.4,0,.5.1.5.5,0,.8,0,1.6,0,2.4h2ZM8,16v3.9h7.9v-3.9h-7.9ZM16,4h-7.9v2.9h7.9v-2.9Z"
        fill="currentColor"    
        />
    </g>
  </g>
</svg>